<?xml version="1.0" encoding="UTF-8"?>
<svg id="Layer_1" data-name="Layer 1" xmlns="http://www.w3.org/2000/svg" viewBox="0 0 32 32">
  <path d="M17.95,16.73c1.61,.26,2.85,1.18,4.02,2.23,1.45,1.31,2.69,2.82,4.02,4.24,.86,.93,1.74,1.86,2.89,2.45,.71,.37,1.4,.36,2-.23,.26-.25,.4-.16,.48,.14,.55,1.89,.43,3.67-.81,5.28-.61,.79-1.46,1.07-2.43,.8-1.15-.31-2.18-.86-3.16-1.52-1.91-1.28-3.47-2.93-4.97-4.66-1.37-1.59-2.65-3.26-4.09-4.79-1.47-1.56-3.29-2.22-5.38-2.3-1.5-.06-3-.1-4.47-.41-1.62-.34-3.12-.99-4.53-1.83-1.14-.67-1.39-1.52-1.07-2.77,.49-1.89,1.51-3.5,2.95-4.81,.98-.89,1.46-1.99,1.55-3.31,.1-1.61,.6-3.08,1.86-4.18,.77-.67,1.67-1.01,2.69-.71,1.64,.48,2.01,1.86,1.55,3.33-.33,1.05-1.02,1.87-1.89,2.51-.43,.32-.49,.66-.37,1.13,.27,1.07,.88,1.93,1.78,2.51,2.04,1.32,4.23,2.31,6.64,2.75,.16,.03,.33,.03,.49,.03,.99-.04,1.5-.64,1.36-1.62-.09-.66-.18-1.32-.14-2,.05-.77,.47-1.26,1.2-1.39,.46-.08,.82,.04,1.12,.41,2.41,3.11,4.73,6.27,6.81,9.61,.84,1.35,1.59,2.74,2.22,4.19,.31,.73,.21,1.5-.17,2.21-.18,.33-.56,.4-.98,.24-.68-.25-1.22-.72-1.74-1.2-1.19-1.08-2.35-2.2-3.54-3.28-1.2-1.09-2.44-2.15-3.96-2.79-.62-.26-1.26-.43-1.94-.28ZM8.52,1.83c-.27-.04-.55,.09-.76,.35-.81,.99-.98,2.19-1.06,3.41-.01,.21,.13,.23,.31,.18,.29-.08,.56-.23,.81-.39,.9-.56,1.6-1.27,1.7-2.4,.06-.71-.28-1.15-.99-1.15Z"/>
</svg>