<?xml version="1.0" encoding="UTF-8"?>
<svg id="Layer_1" data-name="Layer 1" xmlns="http://www.w3.org/2000/svg" viewBox="0 0 350 75">
  <path d="M78.76,55.79c-4.9,0-8.71-1.04-11.41-3.12-2.71-2.08-4.13-5.05-4.26-8.9h7.2c.24,2.17,1.01,3.72,2.31,4.67,1.3,.95,3.26,1.42,5.86,1.42,2.06,0,3.75-.38,5.07-1.14,1.32-.76,1.98-1.94,1.98-3.53,0-.57-.08-1.09-.23-1.55-.15-.46-.46-.86-.94-1.22s-.88-.64-1.22-.86c-.34-.22-.96-.46-1.88-.71s-1.61-.44-2.08-.56c-.47-.12-1.35-.33-2.64-.63-1.56-.37-2.83-.69-3.83-.96-1-.27-2.1-.69-3.3-1.27-1.2-.57-2.15-1.21-2.84-1.9-.69-.69-1.28-1.61-1.75-2.74-.47-1.13-.71-2.43-.71-3.88,0-3.48,1.28-6.16,3.83-8.04,2.55-1.88,5.91-2.82,10.07-2.82s7.42,.98,9.89,2.94c2.47,1.96,3.84,4.75,4.11,8.37h-7.05c-.2-1.76-.94-3.11-2.21-4.06-1.27-.95-2.87-1.42-4.79-1.42s-3.59,.39-4.77,1.17c-1.18,.78-1.78,1.81-1.78,3.1,0,1.39,.58,2.4,1.75,3.04,1.17,.64,3.22,1.28,6.16,1.93,1.76,.37,3.2,.72,4.31,1.04,1.12,.32,2.33,.78,3.63,1.37,1.3,.59,2.32,1.24,3.04,1.95,.73,.71,1.34,1.65,1.83,2.81,.49,1.17,.74,2.51,.74,4.03,0,3.59-1.3,6.39-3.91,8.42-2.6,2.03-6,3.04-10.2,3.04Z"/>
  <path d="M108.9,50.41c-1.93,0-3.45-.57-4.57-1.7-1.12-1.13-1.81-2.73-2.08-4.79h18.87c0-4.77-1.12-8.57-3.35-11.41-2.23-2.84-5.39-4.26-9.49-4.26-3.75,0-6.83,1.31-9.23,3.93-2.4,2.62-3.6,5.88-3.6,9.77s1.2,7.33,3.6,9.92c2.4,2.59,5.7,3.88,9.89,3.88,3.21,0,5.85-.81,7.91-2.43,2.06-1.62,3.35-3.65,3.86-6.09h-6.8c-.81,2.13-2.49,3.2-5.02,3.2Zm-.51-16.84c1.55,0,2.84,.52,3.85,1.55,1.01,1.03,1.57,2.38,1.67,4.03h-11.57c.68-3.72,2.69-5.58,6.04-5.58Z"/>
  <path d="M131.06,28.96v3.55h.15c1.79-2.84,4.36-4.26,7.71-4.26,2.67,0,4.84,.91,6.49,2.71,1.66,1.81,2.49,4.15,2.49,7.03v16.99h-6.9v-15.98c0-1.42-.4-2.57-1.19-3.45-.8-.88-1.9-1.32-3.32-1.32-1.52,0-2.78,.56-3.78,1.67-1,1.12-1.5,2.55-1.5,4.31v14.76h-6.9V28.96h6.75Z"/>
  <path d="M169.51,18.71v13.39h-.15c-1.66-2.57-4.11-3.85-7.36-3.85s-5.91,1.28-7.99,3.83-3.12,5.86-3.12,9.92,1.01,7.53,3.04,10.02c2.03,2.49,4.68,3.73,7.96,3.73,3.48,0,6.07-1.39,7.76-4.16h.1v3.4h6.65V18.71h-6.9Zm-1.45,29.17c-1.07,1.39-2.61,2.08-4.64,2.08-1.76,0-3.12-.69-4.08-2.08s-1.45-3.35-1.45-5.88,.49-4.45,1.47-5.94c.98-1.49,2.4-2.23,4.26-2.23,4.02,0,6.04,2.77,6.04,8.32,0,2.43-.53,4.34-1.6,5.73Z"/>
  <path d="M195.49,55.79c-4.9,0-8.71-1.04-11.41-3.12-2.71-2.08-4.13-5.05-4.26-8.9h7.2c.24,2.17,1.01,3.72,2.31,4.67,1.3,.95,3.26,1.42,5.86,1.42,2.06,0,3.75-.38,5.07-1.14,1.32-.76,1.98-1.94,1.98-3.53,0-.57-.08-1.09-.23-1.55-.15-.46-.46-.86-.94-1.22s-.88-.64-1.22-.86c-.34-.22-.96-.46-1.88-.71s-1.61-.44-2.08-.56c-.47-.12-1.35-.33-2.64-.63-1.56-.37-2.83-.69-3.83-.96-1-.27-2.1-.69-3.3-1.27-1.2-.57-2.15-1.21-2.84-1.9-.69-.69-1.28-1.61-1.75-2.74-.47-1.13-.71-2.43-.71-3.88,0-3.48,1.28-6.16,3.83-8.04,2.55-1.88,5.91-2.82,10.07-2.82s7.42,.98,9.89,2.94c2.47,1.96,3.84,4.75,4.11,8.37h-7.05c-.2-1.76-.94-3.11-2.21-4.06-1.27-.95-2.87-1.42-4.79-1.42s-3.59,.39-4.77,1.17c-1.18,.78-1.78,1.81-1.78,3.1,0,1.39,.58,2.4,1.75,3.04,1.17,.64,3.22,1.28,6.16,1.93,1.76,.37,3.2,.72,4.31,1.04,1.12,.32,2.33,.78,3.63,1.37,1.3,.59,2.32,1.24,3.04,1.95,.73,.71,1.34,1.65,1.83,2.81,.49,1.17,.74,2.51,.74,4.03,0,3.59-1.3,6.39-3.91,8.42-2.6,2.03-6,3.04-10.2,3.04Z"/>
  <path d="M236.12,32.05c-2.06-2.54-4.8-3.8-8.22-3.8-3.18,0-5.73,1.32-7.66,3.96h-.15v-3.25h-6.65V63.5h6.9v-11.47h.1c1.62,2.47,4.13,3.7,7.51,3.7s6.1-1.24,8.17-3.73c2.06-2.49,3.09-5.82,3.09-10.02s-1.03-7.41-3.09-9.94Zm-5.45,15.88c-1.03,1.39-2.43,2.08-4.19,2.08-2.03,0-3.59-.7-4.67-2.11-1.08-1.4-1.62-3.3-1.62-5.71s.49-4.52,1.47-6.06,2.5-2.31,4.57-2.31,3.53,.74,4.52,2.23c.98,1.49,1.47,3.53,1.47,6.14,0,2.43-.52,4.35-1.55,5.73Z"/>
  <path d="M264.53,32.18c-2.54-2.62-5.8-3.93-9.79-3.93s-7.25,1.31-9.79,3.93c-2.54,2.62-3.8,5.89-3.8,9.82s1.27,7.2,3.8,9.82c2.54,2.62,5.8,3.93,9.79,3.93s7.25-1.31,9.79-3.93c2.54-2.62,3.8-5.89,3.8-9.82s-1.27-7.19-3.8-9.82Zm-4.95,15.98c-1.17,1.54-2.78,2.31-4.84,2.31s-3.72-.77-4.87-2.31c-1.15-1.54-1.73-3.59-1.73-6.16s.58-4.68,1.73-6.21,2.77-2.31,4.87-2.31,3.68,.78,4.84,2.33,1.75,3.62,1.75,6.19-.58,4.62-1.75,6.16Z"/>
  <path d="M269.5,33.52v-4.57h3.6v-8.12h6.75v8.12h4.46v4.57h-4.46v13.8c0,1.72,.86,2.59,2.59,2.59l2.03-.05v5.07c-1.05,.07-2.49,.1-4.31,.1-2,0-3.67-.48-5.02-1.45s-2.03-2.56-2.03-4.79v-15.27h-3.6Z"/>
  <path d="M285.83,33.52v-4.57h3.6v-8.12h6.75v8.12h4.46v4.57h-4.46v13.8c0,1.72,.86,2.59,2.59,2.59l2.03-.05v5.07c-1.05,.07-2.49,.1-4.31,.1-2,0-3.67-.48-5.02-1.45-1.35-.96-2.03-2.56-2.03-4.79v-15.27h-3.6Z"/>
  <path d="M316.12,50.41c-1.93,0-3.45-.57-4.57-1.7s-1.81-2.73-2.08-4.79h18.87c0-4.77-1.12-8.57-3.35-11.41-2.23-2.84-5.4-4.26-9.49-4.26-3.75,0-6.83,1.31-9.23,3.93-2.4,2.62-3.6,5.88-3.6,9.77s1.2,7.33,3.6,9.92,5.7,3.88,9.89,3.88c3.21,0,5.85-.81,7.91-2.43s3.35-3.65,3.86-6.09h-6.8c-.81,2.13-2.49,3.2-5.02,3.2Zm-.51-16.84c1.55,0,2.84,.52,3.86,1.55,1.01,1.03,1.57,2.38,1.67,4.03h-11.57c.67-3.72,2.69-5.58,6.04-5.58Z"/>
  <path d="M338.18,28.96v4.16h.15c.81-1.52,1.71-2.65,2.69-3.37,.98-.73,2.21-1.09,3.7-1.09,.71,0,1.25,.07,1.62,.2v6.04h-.15c-2.33-.24-4.21,.27-5.63,1.52-1.42,1.25-2.13,3.21-2.13,5.88v12.68h-6.9V28.96h6.64Z"/>
  <path d="M31.08,37.15c2.51,.41,4.44,1.83,6.25,3.47,2.26,2.04,4.19,4.39,6.26,6.6,1.35,1.44,2.7,2.89,4.49,3.81,1.1,.57,2.17,.56,3.11-.35,.41-.39,.62-.25,.75,.21,.86,2.93,.67,5.71-1.26,8.21-.95,1.23-2.27,1.66-3.79,1.25-1.78-.49-3.39-1.34-4.91-2.37-2.97-1.99-5.41-4.56-7.73-7.25-2.14-2.47-4.12-5.07-6.36-7.46-2.28-2.43-5.12-3.45-8.37-3.57-2.33-.09-4.67-.15-6.96-.64-2.51-.54-4.85-1.54-7.05-2.84-1.77-1.04-2.16-2.37-1.66-4.31,.76-2.95,2.34-5.44,4.6-7.49,1.53-1.39,2.28-3.09,2.41-5.15,.16-2.51,.93-4.8,2.9-6.51,1.2-1.04,2.6-1.57,4.18-1.11,2.55,.74,3.13,2.89,2.41,5.18-.51,1.64-1.59,2.9-2.94,3.91-.66,.49-.76,1.03-.58,1.76,.42,1.67,1.36,3,2.77,3.91,3.18,2.05,6.58,3.6,10.33,4.28,.25,.04,.51,.05,.76,.04,1.54-.06,2.33-.99,2.12-2.52-.14-1.03-.28-2.06-.21-3.11,.08-1.2,.73-1.95,1.87-2.16,.71-.13,1.28,.06,1.74,.64,3.75,4.83,7.37,9.75,10.59,14.95,1.3,2.1,2.48,4.26,3.45,6.52,.49,1.14,.33,2.34-.26,3.44-.27,.51-.86,.63-1.53,.38-1.06-.39-1.9-1.13-2.71-1.87-1.85-1.68-3.65-3.43-5.51-5.11-1.87-1.7-3.8-3.34-6.16-4.34-.96-.41-1.96-.66-3.02-.43ZM16.4,13.95c-.43-.06-.86,.15-1.19,.55-1.26,1.55-1.52,3.41-1.65,5.31-.02,.33,.2,.36,.48,.29,.46-.13,.86-.36,1.26-.61,1.4-.87,2.49-1.97,2.64-3.74,.09-1.11-.43-1.79-1.54-1.79Z"/>
</svg>